<svg xmlns="http://www.w3.org/2000/svg" viewBox="-140 -500 640 640" preserveAspectRatio="xMinYMin meet" ><polyline fill="none" stroke="black" stroke-width="1" points="0,0 0,-10" /><polyline fill="none" stroke="black" stroke-width="1" points="-10,-10 -10,-20 -10,-30 -20,-30 -20,-20 -20,-10 -10,-10" /><polyline fill="none" stroke="black" stroke-width="1" points="0,-10 0,-20 0,-30" /><polyline fill="none" stroke="black" stroke-width="1" points="10,-30 10,-40 10,-50 20,-50 20,-40 20,-30 10,-30" /><polyline fill="none" stroke="black" stroke-width="1" points="0,-30 0,-40 0,-50 0,-60" /><polyline fill="none" stroke="black" stroke-width="1" points="-60,-60 -60,-70" /><polyline fill="none" stroke="black" stroke-width="1" points="-70,-70 -70,-80 -70,-90 -80,-90 -80,-80 -80,-70 -70,-70" /><polyline fill="none" stroke="black" stroke-width="1" points="-60,-70 -60,-80 -60,-90" /><polyline fill="none" stroke="black" stroke-width="1" points="-50,-90 -50,-100 -50,-110 -40,-110 -40,-100 -40,-90 -50,-90" /><polyline fill="none" stroke="black" stroke-width="1" points="-60,-90 -60,-100 -60,-110 -60,-120 -60,-130" /><polyline fill="none" stroke="black" stroke-width="1" points="-70,-130 -70,-140 -70,-150 -80,-150 -80,-140 -80,-130 -70,-130" /><polyline fill="none" stroke="black" stroke-width="1" points="-60,-130 -60,-140 -60,-150" /><polyline fill="none" stroke="black" stroke-width="1" points="-50,-150 -50,-160 -50,-170 -40,-170 -40,-160 -40,-150 -50,-150" /><polyline fill="none" stroke="black" stroke-width="1" points="-60,-150 -60,-160 -60,-170 -60,-180 -70,-180" /><polyline fill="none" stroke="black" stroke-width="1" points="-70,-170 -80,-170 -90,-170 -90,-160 -80,-160 -70,-160 -70,-170" /><polyline fill="none" stroke="black" stroke-width="1" points="-70,-180 -80,-180 -90,-180" /><polyline fill="none" stroke="black" stroke-width="1" points="-90,-190 -100,-190 -110,-190 -110,-200 -100,-200 -90,-200 -90,-190" /><polyline fill="none" stroke="black" stroke-width="1" points="-90,-180 -100,-180 -110,-180 -120,-180 -120,-170" /><polyline fill="none" stroke="black" stroke-width="1" points="-110,-170 -110,-160 -110,-150 -100,-150 -100,-160 -100,-170 -110,-170" /><polyline fill="none" stroke="black" stroke-width="1" points="-120,-170 -120,-160 -120,-150" /><polyline fill="none" stroke="black" stroke-width="1" points="-130,-150 -130,-140 -130,-130 -140,-130 -140,-140 -140,-150 -130,-150" /><polyline fill="none" stroke="black" stroke-width="1" points="-120,-150 -120,-140 -120,-130 -120,-120 -120,-110" /><polyline fill="none" stroke="black" stroke-width="1" points="-110,-110 -110,-100 -110,-90 -100,-90 -100,-100 -100,-110 -110,-110" /><polyline fill="none" stroke="black" stroke-width="1" points="-120,-110 -120,-100 -120,-90" /><polyline fill="none" stroke="black" stroke-width="1" points="-130,-90 -130,-80 -130,-70 -140,-70 -140,-80 -140,-90 -130,-90" /><polyline fill="none" stroke="black" stroke-width="1" points="-120,-90 -120,-80 -120,-70 -120,-60 -110,-60" /><polyline fill="none" stroke="black" stroke-width="1" points="-110,-70 -100,-70 -90,-70 -90,-80 -100,-80 -110,-80 -110,-70" /><polyline fill="none" stroke="black" stroke-width="1" points="-110,-60 -100,-60 -90,-60" /><polyline fill="none" stroke="black" stroke-width="1" points="-90,-50 -80,-50 -70,-50 -70,-40 -80,-40 -90,-40 -90,-50" /><polyline fill="none" stroke="black" stroke-width="1" points="-90,-60 -80,-60 -70,-60 -60,-60" /><polyline fill="none" stroke="black" stroke-width="1" points="0,-60 0,-70" /><polyline fill="none" stroke="black" stroke-width="1" points="-10,-70 -10,-80 -10,-90 -20,-90 -20,-80 -20,-70 -10,-70" /><polyline fill="none" stroke="black" stroke-width="1" points="0,-70 0,-80 0,-90" /><polyline fill="none" stroke="black" stroke-width="1" points="10,-90 10,-100 10,-110 20,-110 20,-100 20,-90 10,-90" /><polyline fill="none" stroke="black" stroke-width="1" points="0,-90 0,-100 0,-110 0,-120 0,-130" /><polyline fill="none" stroke="black" stroke-width="1" points="-10,-130 -10,-140 -10,-150 -20,-150 -20,-140 -20,-130 -10,-130" /><polyline fill="none" stroke="black" stroke-width="1" points="0,-130 0,-140 0,-150" /><polyline fill="none" stroke="black" stroke-width="1" points="10,-150 10,-160 10,-170 20,-170 20,-160 20,-150 10,-150" /><polyline fill="none" stroke="black" stroke-width="1" points="0,-150 0,-160 0,-170 0,-180" /><polyline fill="none" stroke="black" stroke-width="1" points="60,-180 60,-190" /><polyline fill="none" stroke="black" stroke-width="1" points="50,-190 50,-200 50,-210 40,-210 40,-200 40,-190 50,-190" /><polyline fill="none" stroke="black" stroke-width="1" points="60,-190 60,-200 60,-210" /><polyline fill="none" stroke="black" stroke-width="1" points="70,-210 70,-220 70,-230 80,-230 80,-220 80,-210 70,-210" /><polyline fill="none" stroke="black" stroke-width="1" points="60,-210 60,-220 60,-230 60,-240 60,-250" /><polyline fill="none" stroke="black" stroke-width="1" points="50,-250 50,-260 50,-270 40,-270 40,-260 40,-250 50,-250" /><polyline fill="none" stroke="black" stroke-width="1" points="60,-250 60,-260 60,-270" /><polyline fill="none" stroke="black" stroke-width="1" points="70,-270 70,-280 70,-290 80,-290 80,-280 80,-270 70,-270" /><polyline fill="none" stroke="black" stroke-width="1" points="60,-270 60,-280 60,-290 60,-300 70,-300" /><polyline fill="none" stroke="black" stroke-width="1" points="70,-310 80,-310 90,-310 90,-320 80,-320 70,-320 70,-310" /><polyline fill="none" stroke="black" stroke-width="1" points="70,-300 80,-300 90,-300" /><polyline fill="none" stroke="black" stroke-width="1" points="90,-290 100,-290 110,-290 110,-280 100,-280 90,-280 90,-290" /><polyline fill="none" stroke="black" stroke-width="1" points="90,-300 100,-300 110,-300 120,-300 120,-290" /><polyline fill="none" stroke="black" stroke-width="1" points="130,-290 130,-280 130,-270 140,-270 140,-280 140,-290 130,-290" /><polyline fill="none" stroke="black" stroke-width="1" points="120,-290 120,-280 120,-270" /><polyline fill="none" stroke="black" stroke-width="1" points="110,-270 110,-260 110,-250 100,-250 100,-260 100,-270 110,-270" /><polyline fill="none" stroke="black" stroke-width="1" points="120,-270 120,-260 120,-250 120,-240 120,-230" /><polyline fill="none" stroke="black" stroke-width="1" points="130,-230 130,-220 130,-210 140,-210 140,-220 140,-230 130,-230" /><polyline fill="none" stroke="black" stroke-width="1" points="120,-230 120,-220 120,-210" /><polyline fill="none" stroke="black" stroke-width="1" points="110,-210 110,-200 110,-190 100,-190 100,-200 100,-210 110,-210" /><polyline fill="none" stroke="black" stroke-width="1" points="120,-210 120,-200 120,-190 120,-180 110,-180" /><polyline fill="none" stroke="black" stroke-width="1" points="110,-170 100,-170 90,-170 90,-160 100,-160 110,-160 110,-170" /><polyline fill="none" stroke="black" stroke-width="1" points="110,-180 100,-180 90,-180" /><polyline fill="none" stroke="black" stroke-width="1" points="90,-190 80,-190 70,-190 70,-200 80,-200 90,-200 90,-190" /><polyline fill="none" stroke="black" stroke-width="1" points="90,-180 80,-180 70,-180 60,-180" /><polyline fill="none" stroke="black" stroke-width="1" points="0,-180 0,-190" /><polyline fill="none" stroke="black" stroke-width="1" points="-10,-190 -10,-200 -10,-210 -20,-210 -20,-200 -20,-190 -10,-190" /><polyline fill="none" stroke="black" stroke-width="1" points="0,-190 0,-200 0,-210" /><polyline fill="none" stroke="black" stroke-width="1" points="10,-210 10,-220 10,-230 20,-230 20,-220 20,-210 10,-210" /><polyline fill="none" stroke="black" stroke-width="1" points="0,-210 0,-220 0,-230 0,-240 0,-250" /><polyline fill="none" stroke="black" stroke-width="1" points="-10,-250 -10,-260 -10,-270 -20,-270 -20,-260 -20,-250 -10,-250" /><polyline fill="none" stroke="black" stroke-width="1" points="0,-250 0,-260 0,-270" /><polyline fill="none" stroke="black" stroke-width="1" points="10,-270 10,-280 10,-290 20,-290 20,-280 20,-270 10,-270" /><polyline fill="none" stroke="black" stroke-width="1" points="0,-270 0,-280 0,-290 0,-300 0,-310" /><polyline fill="none" stroke="black" stroke-width="1" points="-10,-310 -10,-320 -10,-330 -20,-330 -20,-320 -20,-310 -10,-310" /><polyline fill="none" stroke="black" stroke-width="1" points="0,-310 0,-320 0,-330" /><polyline fill="none" stroke="black" stroke-width="1" points="10,-330 10,-340 10,-350 20,-350 20,-340 20,-330 10,-330" /><polyline fill="none" stroke="black" stroke-width="1" points="0,-330 0,-340 0,-350 0,-360 10,-360" /><polyline fill="none" stroke="black" stroke-width="1" points="10,-370 20,-370 30,-370 30,-380 20,-380 10,-380 10,-370" /><polyline fill="none" stroke="black" stroke-width="1" points="10,-360 20,-360 30,-360" /><polyline fill="none" stroke="black" stroke-width="1" points="30,-350 40,-350 50,-350 50,-340 40,-340 30,-340 30,-350" /><polyline fill="none" stroke="black" stroke-width="1" points="30,-360 40,-360 50,-360 60,-360" /><polyline fill="none" stroke="black" stroke-width="1" points="60,-420 70,-420" /><polyline fill="none" stroke="black" stroke-width="1" points="70,-430 80,-430 90,-430 90,-440 80,-440 70,-440 70,-430" /><polyline fill="none" stroke="black" stroke-width="1" points="70,-420 80,-420 90,-420" /><polyline fill="none" stroke="black" stroke-width="1" points="90,-410 100,-410 110,-410 110,-400 100,-400 90,-400 90,-410" /><polyline fill="none" stroke="black" stroke-width="1" points="90,-420 100,-420 110,-420 120,-420 130,-420" /><polyline fill="none" stroke="black" stroke-width="1" points="130,-430 140,-430 150,-430 150,-440 140,-440 130,-440 130,-430" /><polyline fill="none" stroke="black" stroke-width="1" points="130,-420 140,-420 150,-420" /><polyline fill="none" stroke="black" stroke-width="1" points="150,-410 160,-410 170,-410 170,-400 160,-400 150,-400 150,-410" /><polyline fill="none" stroke="black" stroke-width="1" points="150,-420 160,-420 170,-420 180,-420 180,-430" /><polyline fill="none" stroke="black" stroke-width="1" points="170,-430 170,-440 170,-450 160,-450 160,-440 160,-430 170,-430" /><polyline fill="none" stroke="black" stroke-width="1" points="180,-430 180,-440 180,-450" /><polyline fill="none" stroke="black" stroke-width="1" points="190,-450 190,-460 190,-470 200,-470 200,-460 200,-450 190,-450" /><polyline fill="none" stroke="black" stroke-width="1" points="180,-450 180,-460 180,-470 180,-480 170,-480" /><polyline fill="none" stroke="black" stroke-width="1" points="170,-470 160,-470 150,-470 150,-460 160,-460 170,-460 170,-470" /><polyline fill="none" stroke="black" stroke-width="1" points="170,-480 160,-480 150,-480" /><polyline fill="none" stroke="black" stroke-width="1" points="150,-490 140,-490 130,-490 130,-500 140,-500 150,-500 150,-490" /><polyline fill="none" stroke="black" stroke-width="1" points="150,-480 140,-480 130,-480 120,-480 110,-480" /><polyline fill="none" stroke="black" stroke-width="1" points="110,-470 100,-470 90,-470 90,-460 100,-460 110,-460 110,-470" /><polyline fill="none" stroke="black" stroke-width="1" points="110,-480 100,-480 90,-480" /><polyline fill="none" stroke="black" stroke-width="1" points="90,-490 80,-490 70,-490 70,-500 80,-500 90,-500 90,-490" /><polyline fill="none" stroke="black" stroke-width="1" points="90,-480 80,-480 70,-480 60,-480 60,-470" /><polyline fill="none" stroke="black" stroke-width="1" points="70,-470 70,-460 70,-450 80,-450 80,-460 80,-470 70,-470" /><polyline fill="none" stroke="black" stroke-width="1" points="60,-470 60,-460 60,-450" /><polyline fill="none" stroke="black" stroke-width="1" points="50,-450 50,-440 50,-430 40,-430 40,-440 40,-450 50,-450" /><polyline fill="none" stroke="black" stroke-width="1" points="60,-450 60,-440 60,-430 60,-420" /><polyline fill="none" stroke="black" stroke-width="1" points="60,-360 70,-360" /><polyline fill="none" stroke="black" stroke-width="1" points="70,-370 80,-370 90,-370 90,-380 80,-380 70,-380 70,-370" /><polyline fill="none" stroke="black" stroke-width="1" points="70,-360 80,-360 90,-360" /><polyline fill="none" stroke="black" stroke-width="1" points="90,-350 100,-350 110,-350 110,-340 100,-340 90,-340 90,-350" /><polyline fill="none" stroke="black" stroke-width="1" points="90,-360 100,-360 110,-360 120,-360 130,-360" /><polyline fill="none" stroke="black" stroke-width="1" points="130,-370 140,-370 150,-370 150,-380 140,-380 130,-380 130,-370" /><polyline fill="none" stroke="black" stroke-width="1" points="130,-360 140,-360 150,-360" /><polyline fill="none" stroke="black" stroke-width="1" points="150,-350 160,-350 170,-350 170,-340 160,-340 150,-340 150,-350" /><polyline fill="none" stroke="black" stroke-width="1" points="150,-360 160,-360 170,-360 180,-360" /><polyline fill="none" stroke="black" stroke-width="1" points="180,-300 190,-300" /><polyline fill="none" stroke="black" stroke-width="1" points="190,-310 200,-310 210,-310 210,-320 200,-320 190,-320 190,-310" /><polyline fill="none" stroke="black" stroke-width="1" points="190,-300 200,-300 210,-300" /><polyline fill="none" stroke="black" stroke-width="1" points="210,-290 220,-290 230,-290 230,-280 220,-280 210,-280 210,-290" /><polyline fill="none" stroke="black" stroke-width="1" points="210,-300 220,-300 230,-300 240,-300 250,-300" /><polyline fill="none" stroke="black" stroke-width="1" points="250,-310 260,-310 270,-310 270,-320 260,-320 250,-320 250,-310" /><polyline fill="none" stroke="black" stroke-width="1" points="250,-300 260,-300 270,-300" /><polyline fill="none" stroke="black" stroke-width="1" points="270,-290 280,-290 290,-290 290,-280 280,-280 270,-280 270,-290" /><polyline fill="none" stroke="black" stroke-width="1" points="270,-300 280,-300 290,-300 300,-300 300,-290" /><polyline fill="none" stroke="black" stroke-width="1" points="310,-290 310,-280 310,-270 320,-270 320,-280 320,-290 310,-290" /><polyline fill="none" stroke="black" stroke-width="1" points="300,-290 300,-280 300,-270" /><polyline fill="none" stroke="black" stroke-width="1" points="290,-270 290,-260 290,-250 280,-250 280,-260 280,-270 290,-270" /><polyline fill="none" stroke="black" stroke-width="1" points="300,-270 300,-260 300,-250 300,-240 290,-240" /><polyline fill="none" stroke="black" stroke-width="1" points="290,-230 280,-230 270,-230 270,-220 280,-220 290,-220 290,-230" /><polyline fill="none" stroke="black" stroke-width="1" points="290,-240 280,-240 270,-240" /><polyline fill="none" stroke="black" stroke-width="1" points="270,-250 260,-250 250,-250 250,-260 260,-260 270,-260 270,-250" /><polyline fill="none" stroke="black" stroke-width="1" points="270,-240 260,-240 250,-240 240,-240 230,-240" /><polyline fill="none" stroke="black" stroke-width="1" points="230,-230 220,-230 210,-230 210,-220 220,-220 230,-220 230,-230" /><polyline fill="none" stroke="black" stroke-width="1" points="230,-240 220,-240 210,-240" /><polyline fill="none" stroke="black" stroke-width="1" points="210,-250 200,-250 190,-250 190,-260 200,-260 210,-260 210,-250" /><polyline fill="none" stroke="black" stroke-width="1" points="210,-240 200,-240 190,-240 180,-240 180,-250" /><polyline fill="none" stroke="black" stroke-width="1" points="170,-250 170,-260 170,-270 160,-270 160,-260 160,-250 170,-250" /><polyline fill="none" stroke="black" stroke-width="1" points="180,-250 180,-260 180,-270" /><polyline fill="none" stroke="black" stroke-width="1" points="190,-270 190,-280 190,-290 200,-290 200,-280 200,-270 190,-270" /><polyline fill="none" stroke="black" stroke-width="1" points="180,-270 180,-280 180,-290 180,-300" /><polyline fill="none" stroke="black" stroke-width="1" points="180,-360 190,-360" /><polyline fill="none" stroke="black" stroke-width="1" points="190,-370 200,-370 210,-370 210,-380 200,-380 190,-380 190,-370" /><polyline fill="none" stroke="black" stroke-width="1" points="190,-360 200,-360 210,-360" /><polyline fill="none" stroke="black" stroke-width="1" points="210,-350 220,-350 230,-350 230,-340 220,-340 210,-340 210,-350" /><polyline fill="none" stroke="black" stroke-width="1" points="210,-360 220,-360 230,-360 240,-360 250,-360" /><polyline fill="none" stroke="black" stroke-width="1" points="250,-370 260,-370 270,-370 270,-380 260,-380 250,-380 250,-370" /><polyline fill="none" stroke="black" stroke-width="1" points="250,-360 260,-360 270,-360" /><polyline fill="none" stroke="black" stroke-width="1" points="270,-350 280,-350 290,-350 290,-340 280,-340 270,-340 270,-350" /><polyline fill="none" stroke="black" stroke-width="1" points="270,-360 280,-360 290,-360 300,-360 310,-360" /><polyline fill="none" stroke="black" stroke-width="1" points="310,-370 320,-370 330,-370 330,-380 320,-380 310,-380 310,-370" /><polyline fill="none" stroke="black" stroke-width="1" points="310,-360 320,-360 330,-360" /><polyline fill="none" stroke="black" stroke-width="1" points="330,-350 340,-350 350,-350 350,-340 340,-340 330,-340 330,-350" /><polyline fill="none" stroke="black" stroke-width="1" points="330,-360 340,-360 350,-360 360,-360 360,-350" /><polyline fill="none" stroke="black" stroke-width="1" points="370,-350 370,-340 370,-330 380,-330 380,-340 380,-350 370,-350" /><polyline fill="none" stroke="black" stroke-width="1" points="360,-350 360,-340 360,-330" /><polyline fill="none" stroke="black" stroke-width="1" points="350,-330 350,-320 350,-310 340,-310 340,-320 340,-330 350,-330" /><polyline fill="none" stroke="black" stroke-width="1" points="360,-330 360,-320 360,-310 360,-300" /><polyline fill="none" stroke="black" stroke-width="1" points="420,-300 420,-290" /><polyline fill="none" stroke="black" stroke-width="1" points="430,-290 430,-280 430,-270 440,-270 440,-280 440,-290 430,-290" /><polyline fill="none" stroke="black" stroke-width="1" points="420,-290 420,-280 420,-270" /><polyline fill="none" stroke="black" stroke-width="1" points="410,-270 410,-260 410,-250 400,-250 400,-260 400,-270 410,-270" /><polyline fill="none" stroke="black" stroke-width="1" points="420,-270 420,-260 420,-250 420,-240 420,-230" /><polyline fill="none" stroke="black" stroke-width="1" points="430,-230 430,-220 430,-210 440,-210 440,-220 440,-230 430,-230" /><polyline fill="none" stroke="black" stroke-width="1" points="420,-230 420,-220 420,-210" /><polyline fill="none" stroke="black" stroke-width="1" points="410,-210 410,-200 410,-190 400,-190 400,-200 400,-210 410,-210" /><polyline fill="none" stroke="black" stroke-width="1" points="420,-210 420,-200 420,-190 420,-180 430,-180" /><polyline fill="none" stroke="black" stroke-width="1" points="430,-190 440,-190 450,-190 450,-200 440,-200 430,-200 430,-190" /><polyline fill="none" stroke="black" stroke-width="1" points="430,-180 440,-180 450,-180" /><polyline fill="none" stroke="black" stroke-width="1" points="450,-170 460,-170 470,-170 470,-160 460,-160 450,-160 450,-170" /><polyline fill="none" stroke="black" stroke-width="1" points="450,-180 460,-180 470,-180 480,-180 480,-190" /><polyline fill="none" stroke="black" stroke-width="1" points="470,-190 470,-200 470,-210 460,-210 460,-200 460,-190 470,-190" /><polyline fill="none" stroke="black" stroke-width="1" points="480,-190 480,-200 480,-210" /><polyline fill="none" stroke="black" stroke-width="1" points="490,-210 490,-220 490,-230 500,-230 500,-220 500,-210 490,-210" /><polyline fill="none" stroke="black" stroke-width="1" points="480,-210 480,-220 480,-230 480,-240 480,-250" /><polyline fill="none" stroke="black" stroke-width="1" points="470,-250 470,-260 470,-270 460,-270 460,-260 460,-250 470,-250" /><polyline fill="none" stroke="black" stroke-width="1" points="480,-250 480,-260 480,-270" /><polyline fill="none" stroke="black" stroke-width="1" points="490,-270 490,-280 490,-290 500,-290 500,-280 500,-270 490,-270" /><polyline fill="none" stroke="black" stroke-width="1" points="480,-270 480,-280 480,-290 480,-300 470,-300" /><polyline fill="none" stroke="black" stroke-width="1" points="470,-290 460,-290 450,-290 450,-280 460,-280 470,-280 470,-290" /><polyline fill="none" stroke="black" stroke-width="1" points="470,-300 460,-300 450,-300" /><polyline fill="none" stroke="black" stroke-width="1" points="450,-310 440,-310 430,-310 430,-320 440,-320 450,-320 450,-310" /><polyline fill="none" stroke="black" stroke-width="1" points="450,-300 440,-300 430,-300 420,-300" /><polyline fill="none" stroke="black" stroke-width="1" points="360,-300 360,-290" /><polyline fill="none" stroke="black" stroke-width="1" points="370,-290 370,-280 370,-270 380,-270 380,-280 380,-290 370,-290" /><polyline fill="none" stroke="black" stroke-width="1" points="360,-290 360,-280 360,-270" /><polyline fill="none" stroke="black" stroke-width="1" points="350,-270 350,-260 350,-250 340,-250 340,-260 340,-270 350,-270" /><polyline fill="none" stroke="black" stroke-width="1" points="360,-270 360,-260 360,-250 360,-240 360,-230" /><polyline fill="none" stroke="black" stroke-width="1" points="370,-230 370,-220 370,-210 380,-210 380,-220 380,-230 370,-230" /><polyline fill="none" stroke="black" stroke-width="1" points="360,-230 360,-220 360,-210" /><polyline fill="none" stroke="black" stroke-width="1" points="350,-210 350,-200 350,-190 340,-190 340,-200 340,-210 350,-210" /><polyline fill="none" stroke="black" stroke-width="1" points="360,-210 360,-200 360,-190 360,-180" /><polyline fill="none" stroke="black" stroke-width="1" points="300,-180 300,-170" /><polyline fill="none" stroke="black" stroke-width="1" points="310,-170 310,-160 310,-150 320,-150 320,-160 320,-170 310,-170" /><polyline fill="none" stroke="black" stroke-width="1" points="300,-170 300,-160 300,-150" /><polyline fill="none" stroke="black" stroke-width="1" points="290,-150 290,-140 290,-130 280,-130 280,-140 280,-150 290,-150" /><polyline fill="none" stroke="black" stroke-width="1" points="300,-150 300,-140 300,-130 300,-120 300,-110" /><polyline fill="none" stroke="black" stroke-width="1" points="310,-110 310,-100 310,-90 320,-90 320,-100 320,-110 310,-110" /><polyline fill="none" stroke="black" stroke-width="1" points="300,-110 300,-100 300,-90" /><polyline fill="none" stroke="black" stroke-width="1" points="290,-90 290,-80 290,-70 280,-70 280,-80 280,-90 290,-90" /><polyline fill="none" stroke="black" stroke-width="1" points="300,-90 300,-80 300,-70 300,-60 290,-60" /><polyline fill="none" stroke="black" stroke-width="1" points="290,-50 280,-50 270,-50 270,-40 280,-40 290,-40 290,-50" /><polyline fill="none" stroke="black" stroke-width="1" points="290,-60 280,-60 270,-60" /><polyline fill="none" stroke="black" stroke-width="1" points="270,-70 260,-70 250,-70 250,-80 260,-80 270,-80 270,-70" /><polyline fill="none" stroke="black" stroke-width="1" points="270,-60 260,-60 250,-60 240,-60 240,-70" /><polyline fill="none" stroke="black" stroke-width="1" points="230,-70 230,-80 230,-90 220,-90 220,-80 220,-70 230,-70" /><polyline fill="none" stroke="black" stroke-width="1" points="240,-70 240,-80 240,-90" /><polyline fill="none" stroke="black" stroke-width="1" points="250,-90 250,-100 250,-110 260,-110 260,-100 260,-90 250,-90" /><polyline fill="none" stroke="black" stroke-width="1" points="240,-90 240,-100 240,-110 240,-120 240,-130" /><polyline fill="none" stroke="black" stroke-width="1" points="230,-130 230,-140 230,-150 220,-150 220,-140 220,-130 230,-130" /><polyline fill="none" stroke="black" stroke-width="1" points="240,-130 240,-140 240,-150" /><polyline fill="none" stroke="black" stroke-width="1" points="250,-150 250,-160 250,-170 260,-170 260,-160 260,-150 250,-150" /><polyline fill="none" stroke="black" stroke-width="1" points="240,-150 240,-160 240,-170 240,-180 250,-180" /><polyline fill="none" stroke="black" stroke-width="1" points="250,-190 260,-190 270,-190 270,-200 260,-200 250,-200 250,-190" /><polyline fill="none" stroke="black" stroke-width="1" points="250,-180 260,-180 270,-180" /><polyline fill="none" stroke="black" stroke-width="1" points="270,-170 280,-170 290,-170 290,-160 280,-160 270,-160 270,-170" /><polyline fill="none" stroke="black" stroke-width="1" points="270,-180 280,-180 290,-180 300,-180" /><polyline fill="none" stroke="black" stroke-width="1" points="360,-180 360,-170" /><polyline fill="none" stroke="black" stroke-width="1" points="370,-170 370,-160 370,-150 380,-150 380,-160 380,-170 370,-170" /><polyline fill="none" stroke="black" stroke-width="1" points="360,-170 360,-160 360,-150" /><polyline fill="none" stroke="black" stroke-width="1" points="350,-150 350,-140 350,-130 340,-130 340,-140 340,-150 350,-150" /><polyline fill="none" stroke="black" stroke-width="1" points="360,-150 360,-140 360,-130 360,-120 360,-110" /><polyline fill="none" stroke="black" stroke-width="1" points="370,-110 370,-100 370,-90 380,-90 380,-100 380,-110 370,-110" /><polyline fill="none" stroke="black" stroke-width="1" points="360,-110 360,-100 360,-90" /><polyline fill="none" stroke="black" stroke-width="1" points="350,-90 350,-80 350,-70 340,-70 340,-80 340,-90 350,-90" /><polyline fill="none" stroke="black" stroke-width="1" points="360,-90 360,-80 360,-70 360,-60 360,-50" /><polyline fill="none" stroke="black" stroke-width="1" points="370,-50 370,-40 370,-30 380,-30 380,-40 380,-50 370,-50" /><polyline fill="none" stroke="black" stroke-width="1" points="360,-50 360,-40 360,-30" /><polyline fill="none" stroke="black" stroke-width="1" points="350,-30 350,-20 350,-10 340,-10 340,-20 340,-30 350,-30" /><polyline fill="none" stroke="black" stroke-width="1" points="360,-30 360,-20 360,-10 360,0 350,0" /><polyline fill="none" stroke="black" stroke-width="1" points="350,10 340,10 330,10 330,20 340,20 350,20 350,10" /><polyline fill="none" stroke="black" stroke-width="1" points="350,0 340,0 330,0" /><polyline fill="none" stroke="black" stroke-width="1" points="330,-10 320,-10 310,-10 310,-20 320,-20 330,-20 330,-10" /><polyline fill="none" stroke="black" stroke-width="1" points="330,0 320,0 310,0 300,0" /><polyline fill="none" stroke="black" stroke-width="1" points="300,60 290,60" /><polyline fill="none" stroke="black" stroke-width="1" points="290,70 280,70 270,70 270,80 280,80 290,80 290,70" /><polyline fill="none" stroke="black" stroke-width="1" points="290,60 280,60 270,60" /><polyline fill="none" stroke="black" stroke-width="1" points="270,50 260,50 250,50 250,40 260,40 270,40 270,50" /><polyline fill="none" stroke="black" stroke-width="1" points="270,60 260,60 250,60 240,60 230,60" /><polyline fill="none" stroke="black" stroke-width="1" points="230,70 220,70 210,70 210,80 220,80 230,80 230,70" /><polyline fill="none" stroke="black" stroke-width="1" points="230,60 220,60 210,60" /><polyline fill="none" stroke="black" stroke-width="1" points="210,50 200,50 190,50 190,40 200,40 210,40 210,50" /><polyline fill="none" stroke="black" stroke-width="1" points="210,60 200,60 190,60 180,60 180,70" /><polyline fill="none" stroke="black" stroke-width="1" points="190,70 190,80 190,90 200,90 200,80 200,70 190,70" /><polyline fill="none" stroke="black" stroke-width="1" points="180,70 180,80 180,90" /><polyline fill="none" stroke="black" stroke-width="1" points="170,90 170,100 170,110 160,110 160,100 160,90 170,90" /><polyline fill="none" stroke="black" stroke-width="1" points="180,90 180,100 180,110 180,120 190,120" /><polyline fill="none" stroke="black" stroke-width="1" points="190,110 200,110 210,110 210,100 200,100 190,100 190,110" /><polyline fill="none" stroke="black" stroke-width="1" points="190,120 200,120 210,120" /><polyline fill="none" stroke="black" stroke-width="1" points="210,130 220,130 230,130 230,140 220,140 210,140 210,130" /><polyline fill="none" stroke="black" stroke-width="1" points="210,120 220,120 230,120 240,120 250,120" /><polyline fill="none" stroke="black" stroke-width="1" points="250,110 260,110 270,110 270,100 260,100 250,100 250,110" /><polyline fill="none" stroke="black" stroke-width="1" points="250,120 260,120 270,120" /><polyline fill="none" stroke="black" stroke-width="1" points="270,130 280,130 290,130 290,140 280,140 270,140 270,130" /><polyline fill="none" stroke="black" stroke-width="1" points="270,120 280,120 290,120 300,120 300,110" /><polyline fill="none" stroke="black" stroke-width="1" points="290,110 290,100 290,90 280,90 280,100 280,110 290,110" /><polyline fill="none" stroke="black" stroke-width="1" points="300,110 300,100 300,90" /><polyline fill="none" stroke="black" stroke-width="1" points="310,90 310,80 310,70 320,70 320,80 320,90 310,90" /><polyline fill="none" stroke="black" stroke-width="1" points="300,90 300,80 300,70 300,60" /><polyline fill="none" stroke="black" stroke-width="1" points="300,0 290,0" /><polyline fill="none" stroke="black" stroke-width="1" points="290,10 280,10 270,10 270,20 280,20 290,20 290,10" /><polyline fill="none" stroke="black" stroke-width="1" points="290,0 280,0 270,0" /><polyline fill="none" stroke="black" stroke-width="1" points="270,-10 260,-10 250,-10 250,-20 260,-20 270,-20 270,-10" /><polyline fill="none" stroke="black" stroke-width="1" points="270,0 260,0 250,0 240,0 230,0" /><polyline fill="none" stroke="black" stroke-width="1" points="230,10 220,10 210,10 210,20 220,20 230,20 230,10" /><polyline fill="none" stroke="black" stroke-width="1" points="230,0 220,0 210,0" /><polyline fill="none" stroke="black" stroke-width="1" points="210,-10 200,-10 190,-10 190,-20 200,-20 210,-20 210,-10" /><polyline fill="none" stroke="black" stroke-width="1" points="210,0 200,0 190,0 180,0" /><polyline fill="none" stroke="black" stroke-width="1" points="180,-60 170,-60" /><polyline fill="none" stroke="black" stroke-width="1" points="170,-50 160,-50 150,-50 150,-40 160,-40 170,-40 170,-50" /><polyline fill="none" stroke="black" stroke-width="1" points="170,-60 160,-60 150,-60" /><polyline fill="none" stroke="black" stroke-width="1" points="150,-70 140,-70 130,-70 130,-80 140,-80 150,-80 150,-70" /><polyline fill="none" stroke="black" stroke-width="1" points="150,-60 140,-60 130,-60 120,-60 110,-60" /><polyline fill="none" stroke="black" stroke-width="1" points="110,-50 100,-50 90,-50 90,-40 100,-40 110,-40 110,-50" /><polyline fill="none" stroke="black" stroke-width="1" points="110,-60 100,-60 90,-60" /><polyline fill="none" stroke="black" stroke-width="1" points="90,-70 80,-70 70,-70 70,-80 80,-80 90,-80 90,-70" /><polyline fill="none" stroke="black" stroke-width="1" points="90,-60 80,-60 70,-60 60,-60 60,-70" /><polyline fill="none" stroke="black" stroke-width="1" points="50,-70 50,-80 50,-90 40,-90 40,-80 40,-70 50,-70" /><polyline fill="none" stroke="black" stroke-width="1" points="60,-70 60,-80 60,-90" /><polyline fill="none" stroke="black" stroke-width="1" points="70,-90 70,-100 70,-110 80,-110 80,-100 80,-90 70,-90" /><polyline fill="none" stroke="black" stroke-width="1" points="60,-90 60,-100 60,-110 60,-120 70,-120" /><polyline fill="none" stroke="black" stroke-width="1" points="70,-130 80,-130 90,-130 90,-140 80,-140 70,-140 70,-130" /><polyline fill="none" stroke="black" stroke-width="1" points="70,-120 80,-120 90,-120" /><polyline fill="none" stroke="black" stroke-width="1" points="90,-110 100,-110 110,-110 110,-100 100,-100 90,-100 90,-110" /><polyline fill="none" stroke="black" stroke-width="1" points="90,-120 100,-120 110,-120 120,-120 130,-120" /><polyline fill="none" stroke="black" stroke-width="1" points="130,-130 140,-130 150,-130 150,-140 140,-140 130,-140 130,-130" /><polyline fill="none" stroke="black" stroke-width="1" points="130,-120 140,-120 150,-120" /><polyline fill="none" stroke="black" stroke-width="1" points="150,-110 160,-110 170,-110 170,-100 160,-100 150,-100 150,-110" /><polyline fill="none" stroke="black" stroke-width="1" points="150,-120 160,-120 170,-120 180,-120 180,-110" /><polyline fill="none" stroke="black" stroke-width="1" points="190,-110 190,-100 190,-90 200,-90 200,-100 200,-110 190,-110" /><polyline fill="none" stroke="black" stroke-width="1" points="180,-110 180,-100 180,-90" /><polyline fill="none" stroke="black" stroke-width="1" points="170,-90 170,-80 170,-70 160,-70 160,-80 160,-90 170,-90" /><polyline fill="none" stroke="black" stroke-width="1" points="180,-90 180,-80 180,-70 180,-60" /><polyline fill="none" stroke="black" stroke-width="1" points="180,0 170,0" /><polyline fill="none" stroke="black" stroke-width="1" points="170,10 160,10 150,10 150,20 160,20 170,20 170,10" /><polyline fill="none" stroke="black" stroke-width="1" points="170,0 160,0 150,0" /><polyline fill="none" stroke="black" stroke-width="1" points="150,-10 140,-10 130,-10 130,-20 140,-20 150,-20 150,-10" /><polyline fill="none" stroke="black" stroke-width="1" points="150,0 140,0 130,0 120,0 110,0" /><polyline fill="none" stroke="black" stroke-width="1" points="110,10 100,10 90,10 90,20 100,20 110,20 110,10" /><polyline fill="none" stroke="black" stroke-width="1" points="110,0 100,0 90,0" /><polyline fill="none" stroke="black" stroke-width="1" points="90,-10 80,-10 70,-10 70,-20 80,-20 90,-20 90,-10" /><polyline fill="none" stroke="black" stroke-width="1" points="90,0 80,0 70,0 60,0 50,0" /><polyline fill="none" stroke="black" stroke-width="1" points="50,10 40,10 30,10 30,20 40,20 50,20 50,10" /><polyline fill="none" stroke="black" stroke-width="1" points="50,0 40,0 30,0" /><polyline fill="none" stroke="black" stroke-width="1" points="30,-10 20,-10 10,-10 10,-20 20,-20 30,-20 30,-10" /><polyline fill="none" stroke="black" stroke-width="1" points="30,0 20,0 10,0 0,0" /></svg>
